<?xml version="1.0" standalone="no"?><!DOCTYPE svg PUBLIC "-//W3C//DTD SVG 1.1//EN" "http://www.w3.org/Graphics/SVG/1.1/DTD/svg11.dtd"><svg t="1681046315224" class="icon" viewBox="0 0 1024 1024" version="1.1" xmlns="http://www.w3.org/2000/svg" p-id="497164" xmlns:xlink="http://www.w3.org/1999/xlink" width="200" height="200"><path d="M930.274 307.058c-60.468-60.436-140.81-93.716-226.28-93.716-10.06 0-40.622 0-242.242 65.03-98.31 31.718-190.512 63.842-191.434 64.154a21.344 21.344 0 0 0 0.188 40.374l69.78 23.562L14.7 513.054c-8.734 2.876-14.656 11-14.688 20.188s5.812 17.388 14.532 20.326l335.336 112.874-124.59 61.06c-8.204 4-12.938 12.812-11.782 21.876s7.954 16.374 16.89 18.186c42.952 8.812 421.07 85.75 473.596 85.75 85.468 0 165.81-33.25 226.28-93.686 60.436-60.438 93.714-140.81 93.714-226.292 0-85.466-33.28-165.84-93.714-226.278zM448.002 170.686c0 11.782-9.546 21.344-21.328 21.344s-21.344-9.562-21.344-21.344c0-11.78 9.562-21.342 21.344-21.342 11.782 0 21.328 9.562 21.328 21.342z" fill="#FC6E51" p-id="497165"></path><path d="M789.306 938.686c0 11.75-9.532 21.312-21.312 21.312s-21.312-9.562-21.312-21.312c0-11.812 9.532-21.376 21.312-21.376s21.312 9.564 21.312 21.376z" fill="#AC92EB" p-id="497166"></path><path d="M426.674 896v-21.312c0-11.812-9.562-21.376-21.344-21.376-11.78 0-21.328 9.562-21.328 21.376V896c-11.782 0-21.328 9.562-21.328 21.31 0 11.812 9.546 21.376 21.328 21.376v21.312c0 11.812 9.546 21.312 21.328 21.312s21.344-9.5 21.344-21.312v-21.312c11.78 0 21.328-9.562 21.328-21.376 0-11.748-9.546-21.31-21.328-21.31z" fill="#ED5564" p-id="497167"></path><path d="M767.994 85.346V64.034c0-11.812-9.562-21.344-21.312-21.344-11.812 0-21.376 9.532-21.376 21.344v21.312c-11.75 0-21.312 9.562-21.312 21.342s9.562 21.344 21.312 21.344v21.312c0 11.782 9.562 21.342 21.376 21.342 11.75 0 21.312-9.562 21.312-21.342V128.032c11.782 0 21.312-9.562 21.312-21.344s-9.53-21.342-21.312-21.342z" fill="#48CFAD" p-id="497168"></path><path d="M895.992 533.336c0 106.042-85.966 191.978-191.998 191.978-106.028 0-191.994-85.936-191.994-191.978 0-106.03 85.966-191.998 191.994-191.998 106.032 0 191.998 85.968 191.998 191.998z" fill="#F6BB42" p-id="497169"></path><path d="M917.304 533.336c0-104.498-75.498-191.684-174.874-209.84-0.062-0.032-0.188-0.032-0.282-0.062a213.146 213.146 0 0 0-38.156-3.406c-71.872 0-135.558 35.718-174.228 90.342-0.328 0.406-0.656 0.812-0.968 1.25-0.376 0.532-0.718 1.094-1.046 1.656-23.39 34.218-37.078 75.56-37.078 120.06 0 9.282 0.594 18.42 1.75 27.358 0.016 0.124 0.032 0.25 0.046 0.312 13.61 104.624 103.278 185.684 211.524 185.684 53.812 0 103.062-20.062 140.624-53.06a24.59 24.59 0 0 0 3.032-2.688c42.782-39.064 69.656-95.248 69.656-157.606z m-42.624 0a169.64 169.64 0 0 1-9.438 55.858c-4.906-48.764-29.966-86.982-73.248-111.202-25.188-14.062-40.75-31.81-46.282-52.716-5.688-21.5-0.094-42.78 5.094-56.06 71.406 20.372 123.874 86.246 123.874 164.12z m-139.842 33.482c-13.406 4.376-27.75 1.5-43.904-8.812-74.092-47.264-126.03-45.826-157.246-35.576a169.624 169.624 0 0 1 19.78-69.436c31.468 16.03 65.876 20.936 96.218 20.936 27.842 0 52.246-4.124 67.778-7.562 11.844 19.124 29.782 35.5 53.718 48.874a126.03 126.03 0 0 1 9.156 5.656c-9.032 16.656-25.156 39.296-45.5 45.92z m-30.844-204.136c1.282 0 2.562 0.032 3.876 0.032-5.438 16.782-9.624 39.156-5.624 63.186-27.874 5.468-79.934 11.344-123.684-8.156 31.218-33.842 75.874-55.062 125.432-55.062z m-167.276 204.512c15.748-8.562 57.216-20.438 131.278 26.812 15.406 9.81 29.688 14.686 42.342 16.498 0.156 8.75-1.532 20.376-8.904 31.376-13.376 19.876-42.436 33-84.342 38.25-40.782-24.188-70.654-64.938-80.374-112.936z m154.81 136.37c19.936-9.748 35.248-22.624 45.81-38.686 14-21.25 16.282-43.312 15.406-59.188 26.5-10.374 45.688-33.124 57.876-52.248 8.438 15.062 12.75 32.812 12.876 53.124 0.156 25.562-6.438 48-9.562 57.188-29.75 25.124-68.094 40.248-109.938 40.248-4.188 0-8.374-0.188-12.468-0.438z" fill="#FFCE54" p-id="497170"></path><path d="M192.008 341.338c-11.782 0-21.328 9.562-21.328 21.344s9.546 21.344 21.328 21.344 21.328-9.562 21.328-21.344-9.546-21.344-21.328-21.344zM64.01 640.004c0 11.812 9.546 21.312 21.33 21.312 11.78 0 21.342-9.5 21.342-21.312 0-11.75-9.562-21.312-21.342-21.312-11.784 0-21.33 9.562-21.33 21.312zM21.338 384.026H106.68c11.782 0 21.328-9.562 21.328-21.344s-9.546-21.344-21.328-21.344H21.338c-11.78 0-21.328 9.562-21.328 21.344s9.548 21.344 21.328 21.344zM170.68 725.314H21.34c-11.78 0-21.328 9.562-21.328 21.376C0.012 758.44 9.558 768 21.338 768h149.34c11.782 0 21.328-9.56 21.328-21.31 0.002-11.814-9.546-21.376-21.326-21.376z" fill="#FC6E51" p-id="497171"></path></svg>