<svg width="16" height="16" viewBox="0 0 64 64" fill="none" xmlns="http://www.w3.org/2000/svg">
    <circle cx="32" cy="32" r="27.2" fill="none"/>
    <path fill-rule="evenodd" clip-rule="evenodd" d="M32 0C49.6613 0 64 14.3387 64 32C64 49.6613 49.6613 64 32 64C14.3387 64 0 49.6613 0 32C0 14.3387 14.3387 0 32 0ZM34.2719 56.819C34.2719 56.819 31.7277 51.65 39.0312 48.6797C55.6139 41.9358 49.2104 23.28 49.2372 24.9353C49.4129 35.8667 36.5642 36.3188 40.3363 34.8173C48.3984 31.608 50.5552 6.97581 25.4301 7.1823C24.428 7.19061 33.5448 11.1563 30.717 20.2554C29.1839 25.1879 23.7373 27.5749 20.9976 23.5908C19.643 21.6207 21.1626 17.3868 20.9976 17.3809C17.9027 17.2714 4.95683 35.4459 22.8305 47.6964C25.4654 49.5023 18.3694 41.2798 32.677 31.9834C33.886 31.1971 18.0231 44.3936 34.2719 56.819Z" fill="url(#paint0_linear_51)"/>
    <defs>
        <linearGradient id="paint0_linear_51" x1="64" y1="0" x2="7.62939e-06" y2="64" gradientUnits="userSpaceOnUse">
            <stop stop-color="#D0D0D0"/>
            <stop offset="1" stop-color="#FFFFFF"/>
        </linearGradient>
    </defs>
</svg>
