<svg t="1636533980438" class="icon" viewBox="0 0 1024 1024" version="1.1" xmlns="http://www.w3.org/2000/svg" p-id="3488"
     width="102" height="102">
    <path d="M844.8 128m0 128l0 409.6q0 128-128 128l-537.6 0q-128 0-128-128l0-409.6q0-128 128-128l537.6 0q128 0 128 128Z"
          fill="#F0F9FE" p-id="3490"></path>
    <path d="M793.6 102.4c113.1136 0 204.8 91.6864 204.8 204.8v409.6c0 113.1136-91.6864 204.8-204.8 204.8H230.4C117.2864 921.6 25.6 829.9136 25.6 716.8V307.2C25.6 194.0864 117.2864 102.4 230.4 102.4h563.2z m153.6 204.8c0-84.8256-68.7744-153.6-153.6-153.6H230.4c-84.8256 0-153.6 68.7744-153.6 153.6v409.6c0 84.8256 68.7744 153.6 153.6 153.6h563.2c84.8256 0 153.6-68.7744 153.6-153.6V307.2z"
          fill="#3A4453" p-id="3491"></path>
    <path d="M767.7184 425.0624a51.2 51.2 0 0 0-75.712 0.256L556.7744 574.7584a102.4 102.4 0 0 1-144.4352 7.424l-16.896-15.232a51.2 51.2 0 0 0-70.464 1.856L178.0992 715.6992a25.6 25.6 0 1 1-36.1984-36.1984L288.768 532.608a102.4 102.4 0 0 1 140.9024-3.712l16.896 15.232a51.2 51.2 0 0 0 72.2304-3.712l135.232-149.4656c40.4736-44.736 110.656-44.9664 151.424-0.4992l83.8016 91.4432a25.6 25.6 0 1 1-37.7344 34.5856l-83.8144-91.4304z"
          fill="#3A4453" p-id="3492"></path>
    <path d="M345.6 332.8m-76.8 0a76.8 76.8 0 1 0 153.6 0 76.8 76.8 0 1 0-153.6 0Z" fill="#4FB5F5" p-id="3493"></path>
</svg>